<?xml version="1.0" encoding="utf-8"?>
<!DOCTYPE svg PUBLIC "-//W3C//DTD SVG 1.0//EN" "http://www.w3.org/TR/2001/REC-SVG-20010904/DTD/svg10.dtd">
<svg version="1.0" xmlns="http://www.w3.org/2000/svg" width="500px" height="500px" viewBox="0 0 500 500" preserveAspectRatio="xMidYMid meet">
 <g fill="#000000">
  <path d="M265 425.5 c0 -3.3 0.2 -3.5 3.5 -3.5 3.3 0 3.5 0.2 3.5 3.5 0 3.3 -0.2 3.5 -3.5 3.5 -3.3 0 -3.5 -0.2 -3.5 -3.5z"/>
  <path d="M199 421.5 c0 -3.3 0.2 -3.5 3.5 -3.5 3.3 0 3.5 0.2 3.5 3.5 0 3.3 -0.2 3.5 -3.5 3.5 -3.3 0 -3.5 -0.2 -3.5 -3.5z"/>
  <path d="M289.8 410.3 c-3.4 -0.4 -3.8 -0.7 -3.8 -3.2 0 -3 -1.8 -4.1 -6.7 -4.1 -1.9 0 -2.3 -0.5 -2.3 -3.4 l0 -3.4 -4 1.5 c-3.6 1.4 -5.6 4.3 -3 4.3 0.6 0 1 1.6 1 3.5 0 3.3 -0.2 3.5 -3.5 3.5 -3 0 -3.5 -0.3 -3.5 -2.4 0 -1.3 -0.7 -2.6 -1.5 -3 -1.6 -0.6 -10.3 1.9 -11.9 3.5 -0.6 0.5 -2.5 0.9 -4.3 0.9 -1.8 0 -3.3 0.5 -3.3 1 0 0.6 -1.6 1 -3.5 1 -3.3 0 -3.5 -0.2 -3.5 -3.5 0 -2.8 0.4 -3.5 2 -3.5 1.3 0 2 -0.7 2 -2 0 -1.5 0.7 -2 2.5 -2 1.4 0 2.5 -0.4 2.5 -1 0 -0.5 1.1 -1 2.5 -1 1.4 0 2.5 -0.4 2.5 -1 0 -0.5 0.9 -1 2 -1 1.1 0 2 -0.3 2 -0.8 0 -0.4 1.4 -1.3 3.1 -2.1 1.8 -0.8 6.1 -3.1 9.7 -5.2 6.1 -3.6 8.5 -5.4 13 -10.2 0.9 -1 3.8 -3.4 6.5 -5.4 2.7 -2 4.7 -4.3 4.7 -5.4 0 -1.2 0.7 -1.9 2 -1.9 1.3 0 2 -0.7 2 -2 0 -1.3 0.7 -2 1.8 -2 2.7 0 6.2 -3.4 6.2 -5.9 0 -1.4 0.6 -2.1 1.9 -2.1 2.1 0 6.1 -4.8 6.1 -7.4 0 -0.9 0.6 -1.6 1.3 -1.6 2.8 -0.1 12.2 -17.6 19.1 -35.5 8.8 -23.1 9.6 -50.3 1.8 -60.3 -2.5 -3.2 -8.2 -3.8 -20.3 -2.2 l-9.8 1.3 3.2 3.6 c6.7 7.4 7.9 10.5 8.5 20.7 0.6 12.4 -2.3 38.3 -5.1 44.4 -2 4.4 -6.1 8.9 -8.3 9 -0.6 0 -1.7 0.7 -2.4 1.5 -0.7 0.9 -2.8 2.3 -4.6 3.1 -1.9 0.9 -3.4 2 -3.4 2.5 0 0.5 -0.9 0.9 -2 0.9 -1.1 0 -2 0.5 -2 1 0 0.6 -3.2 1 -7.5 1 -6.8 0 -7.5 -0.2 -7.5 -2 0 -1.1 -0.7 -2 -1.5 -2 -1 0 -1.5 -1 -1.5 -3 0 -2.5 -0.4 -3 -2.5 -3 -2.2 0 -2.5 -0.4 -2.5 -3.4 0 -1.9 0.5 -3.8 1 -4.1 0.6 -0.3 1 -1.6 1 -2.9 0 -1.2 0.4 -2.6 0.9 -3.1 2.1 -2.3 9.1 -21.7 10.4 -29 2.1 -10.9 3 -23.7 1.9 -25.4 -0.8 -1.2 -2.4 -1 -9.8 0.9 -15.2 3.8 -14.9 3.6 -16.2 12.1 -0.6 4.1 -1.3 11.6 -1.6 16.7 -0.4 7.5 -0.2 9.2 1 9.2 1 0 1.4 1.2 1.4 4 0 2.9 -0.4 4 -1.5 4 -2 0 -2 11.8 0 18.6 2 6.9 2.4 27.1 0.6 31 -3.1 6.5 -4.5 9 -6.8 11.3 -2 2.1 -2.9 2.3 -6.9 1.7 -2.5 -0.3 -5.2 -1.3 -6 -2.1 -0.9 -0.8 -2.2 -1.5 -3 -1.5 -0.8 0 -1.8 -1 -2.3 -2.2 -0.5 -1.3 -2.1 -3.6 -3.5 -5.1 -2.6 -2.8 -7.6 -13.6 -7.6 -16.6 0 -2.6 -3.5 -13 -4.8 -14.3 -0.7 -0.7 -1.2 -2.7 -1.2 -4.5 0 -3 0.3 -3.3 3 -3.3 2.9 0 3 -0.1 3 -5.1 l0 -5.2 -5.8 6.4 c-22.2 24.7 -38.7 39 -50.9 44.4 -3.8 1.6 -4.3 2.2 -4.3 5.2 0 3.2 -0.1 3.3 -4 3.3 -3.6 0 -4 -0.2 -4 -2.5 0 -1.6 -0.6 -2.5 -1.5 -2.5 -0.9 0 -1.5 0.9 -1.5 2.5 0 2.2 -0.4 2.5 -3.5 2.5 -3 0 -3.5 -0.3 -3.5 -2.4 0 -2.2 -0.7 -2.6 -5.7 -3.6 -5.6 -1.2 -13.3 -5.2 -13.3 -6.9 0 -0.5 -1.7 -1.8 -3.7 -2.8 -2.1 -1 -4.8 -3.3 -6 -5.2 -3.9 -5.8 -4.6 -10.2 -3.3 -22 1.2 -11.7 1.9 -14.6 5.8 -23.9 2.7 -6.3 2.7 -6.4 6.4 -6 3.1 0.3 3.9 0 4.7 -2 1.5 -3.1 1.4 -4.2 -0.4 -4.2 -1 0 -1.5 -1.1 -1.5 -3.5 0 -2.4 0.5 -3.5 1.4 -3.5 0.9 0 1.6 -1.2 1.8 -2.7 0.3 -2.4 0.8 -2.8 4.1 -3.1 2.5 -0.2 3.7 0.1 3.7 0.9 0 0.7 0.7 0.4 1.5 -0.7 0.8 -1 1.5 -3.4 1.5 -5.3 0 -1.9 0.8 -4.1 1.8 -5 0.9 -0.9 2.4 -2.9 3.2 -4.5 0.8 -1.6 2.7 -4.2 4.3 -5.9 1.5 -1.6 2.7 -3.1 2.7 -3.4 0 -0.2 3.7 -4.8 8.2 -10.1 l8.1 -9.7 -6.8 -0.8 c-8.9 -1 -12 -2.6 -18.3 -10 -10.6 -12.4 -15.2 -26.1 -15.2 -45.1 l0 -8.6 3.5 0 c3.1 0 3.5 0.3 3.5 2.5 0 1.5 0.6 2.5 1.4 2.5 1 0 1.6 1.3 1.8 3.8 0.2 3 0.7 3.8 2.6 4 1.6 0.3 2.2 1 2.2 3 0 1.5 0.8 4.3 1.8 6.2 1.9 3.9 8 6.9 14.3 6.9 4.8 0.1 29.6 -4.4 38.4 -7 l7 -2 5.8 -8.8 c3.1 -4.8 5.7 -9 5.7 -9.4 0 -0.4 -2 -0.7 -4.4 -0.7 -6.2 0 -14.4 -1.7 -19.3 -4 -2.4 -1.1 -4.8 -2 -5.3 -2 -0.6 0 -2.8 -0.9 -4.9 -2 -9 -4.5 -15.1 -12.2 -15.1 -19 0 -3.9 0.1 -4 3.4 -4 2.5 0 3.8 0.6 5 2.5 0.9 1.4 3.5 3.4 5.8 4.6 3.7 1.9 4.6 2 10.1 0.9 8.8 -1.7 44.6 -15.2 48.3 -18.1 0.6 -0.5 1.7 -3.4 2.4 -6.4 1 -4.3 1.1 -6.3 0.1 -9.4 -1.7 -5.9 -7.2 -13.1 -12.4 -16.6 -4.1 -2.7 -4.6 -3.4 -4.6 -6.7 l-0.1 -3.8 11.7 0 c10.7 0 15.9 0.8 20.5 3.1 1 0.5 2.6 0.9 3.7 0.9 2.3 0 12.6 9.2 14.5 12.9 0.7 1.4 1.7 4.7 2 7.4 l0.7 4.7 7.8 0 c11.8 0 24.3 4.6 29.1 10.7 1.5 1.9 2 4.1 2 8.7 l0 6.1 -5.7 3.1 c-7.3 4 -15.9 6.7 -29.3 9.5 -6 1.2 -10.8 2.7 -11.3 3.5 -0.4 0.8 -1.7 1.4 -2.7 1.4 -2.1 0 -3.2 3.2 -4.5 12.3 -0.6 4.4 -0.5 4.8 1.2 4.4 9.6 -2.8 26.1 -6.2 40.3 -8.3 7.8 -1.2 12.2 -2.3 13.6 -3.6 1.1 -1 2.8 -1.8 3.6 -1.8 1.6 0 7.5 -8.4 10.1 -14.3 0.6 -1.5 2 -2.7 2.9 -2.7 1.4 0 1.8 -0.8 1.8 -3.5 0 -3.3 0.2 -3.5 3.5 -3.5 2.4 0 3.5 0.5 3.5 1.5 0 0.8 0.9 1.5 2 1.5 1.5 0 2 0.7 2 2.5 0 1.4 0.5 2.5 1 2.5 0.6 0 1 1.6 1 3.5 0 1.9 -0.4 3.5 -1 3.5 -0.5 0 -1 1.1 -1 2.5 0 1.6 0.6 2.5 1.5 2.5 0.9 0 1.5 0.9 1.5 2.5 0 2.3 0.3 2.5 5 2.5 2.8 0 5 0.5 5 1 0 0.6 0.8 1 1.8 1 3.8 0.2 13.7 6.7 16.8 11.3 3.1 4.6 3.5 15.4 0.7 16.4 -1 0.3 -2.5 1.1 -3.3 1.8 -1.9 1.5 -37.3 15.5 -39.2 15.5 -0.8 0 -1.8 0.4 -2.3 0.8 -0.6 0.5 -2.9 1.5 -5.2 2.2 -2.4 0.7 -5 2.1 -5.9 3.2 -1 1.1 -3.1 1.8 -5.2 1.8 l-3.4 0 0.4 -7 c0.2 -3.9 0.3 -7 0.1 -7 -0.4 0 -15.9 19.4 -17.7 22.3 -1 1.5 -2.5 2.7 -3.2 2.7 -0.8 0 -1.4 0.7 -1.4 1.5 0 1.8 -0.5 1.8 7.5 0 18.4 -4.3 45.4 -5.9 51.2 -3.1 1.5 0.8 5.7 2.7 9.3 4.3 6.9 3 17 10.8 19.2 14.6 0.7 1.4 2.6 4.4 4.2 6.8 1.6 2.4 3.5 6.8 4.3 9.9 0.8 3 1.9 5.9 2.4 6.5 0.5 0.5 0.9 2.8 0.9 5.2 0 3.6 0.3 4.3 2 4.3 1.9 0 2 0.7 2 10.5 0 9.8 0.1 10.5 2 10.5 1.1 0 2 0.4 2 0.9 0 0.5 1.7 0.7 3.9 0.4 6 -0.8 8.1 0.9 8.1 6.5 0 5.9 -1.2 7.2 -6.5 7.2 -4.6 0 -6.5 -1.3 -6.5 -4.7 0 -1.8 -0.6 -2.3 -2.5 -2.3 -1.9 0 -2.6 0.6 -3 2.8 -0.3 1.5 -2 7.3 -3.8 13 -3 9.3 -3.1 10.2 -1.5 10.2 1.4 0 1.8 0.8 1.8 3.5 0 3 -0.3 3.5 -2.4 3.5 -1.9 0 -2.5 0.6 -2.8 2.8 -0.2 2.1 -0.9 2.8 -3.1 3 -2.1 0.3 -3.7 1.8 -6.9 6.5 -2.2 3.4 -5 7.2 -6.1 8.5 l-2 2.2 3.1 0 c3.1 0 3.2 0.2 3.2 4 0 3.9 -0.1 4 -3.5 4 -3.2 0 -3.5 -0.2 -3.5 -3 0 -2.8 -0.3 -2.6 -7.7 5.1 l-7.8 8.1 -4.9 -0.6 c-4.8 -0.5 -5.1 -0.4 -9.7 3.9 -2.7 2.5 -4.2 4.5 -3.4 4.5 1 0 1.5 1.1 1.5 3.5 0 3.3 -0.2 3.5 -3.5 3.5 -1.9 0 -3.5 -0.4 -3.5 -1 0 -1.4 -3.1 -1.2 -6 0.5 -1.9 1.1 -2.1 1.4 -0.7 1.5 1.3 0 1.7 0.8 1.7 3.5 0 3.3 -0.2 3.5 -3.5 3.5 -1.9 0 -3.5 -0.4 -3.5 -1 0 -0.5 -0.4 -1 -1 -1 -0.5 0 -1 1.6 -1 3.6 0 4 -2.1 6.3 -5.6 6.4 -1.2 0 -2.4 0.7 -2.8 1.5 -0.5 1.5 -2.5 1.6 -10.8 0.8z m-120.3 -107.7 c6.1 -4.6 12.3 -9.8 13.9 -11.5 1.7 -1.7 3.8 -3.1 4.9 -3.1 2.7 0 24.7 -19.1 24.7 -21.5 0 -0.6 -1.6 -0.9 -4.1 -0.7 l-4 0.4 0.3 -3.8 c0.3 -3.7 0.5 -3.9 4.1 -4.2 3.2 -0.3 3.7 0 3.7 1.7 0 2.6 4.1 2.9 6.1 0.5 1.3 -1.5 2.6 -21 2.8 -40.6 0.1 -10.9 0.2 -11 -13.9 10.2 -3.8 5.8 -7.8 11.6 -8.9 13 -9.9 12.5 -15 19 -17.1 22 -3.5 5 -5.1 7 -8.2 10.3 -1.6 1.6 -2.8 3.5 -2.8 4.3 0 0.8 -0.6 1.4 -1.4 1.4 -2.5 0 -13.6 19.6 -17 30.3 -2.1 6.4 -2.1 6.3 2.2 2.8 2 -1.7 8.7 -6.9 14.7 -11.5z m90.5 -74.6 c0 -2.7 0.3 -3 3 -3 2.7 0 3 -0.3 3 -3 0 -2.8 0.2 -3 3.9 -3 l3.9 0 -0.5 -4.4 c-0.5 -3.7 -0.2 -4.6 1.6 -5.8 1.1 -0.7 2.1 -1.8 2.1 -2.5 0 -0.7 0.6 -1.6 1.3 -2 1.6 -1.1 6 -7.3 5.4 -7.9 -0.5 -0.6 -19 3.1 -24.2 4.8 -3.2 1 -4.1 1.8 -4.3 4.1 -0.2 1.9 0.1 2.7 1.2 2.7 1.2 0 1.6 1 1.6 3.5 0 2.8 -0.4 3.5 -2 3.5 -1.7 0 -1.9 0.5 -1.3 3.3 0.3 1.7 1 3.4 1.5 3.5 0.4 0.2 0.8 2.4 0.8 4.8 0 3.2 0.4 4.4 1.5 4.4 1 0 1.5 -1 1.5 -3z"/>
  <path d="M188 275.5 c0 -3.3 0.2 -3.5 3.5 -3.5 3.3 0 3.5 0.2 3.5 3.5 0 3.3 -0.2 3.5 -3.5 3.5 -3.3 0 -3.5 -0.2 -3.5 -3.5z"/>
  <path d="M354 397.5 c0 -1.6 -0.6 -2.5 -1.5 -2.5 -1.3 0 -1.5 -1.6 -1.3 -10.7 l0.3 -10.8 6.6 -0.9 c3.6 -0.5 8.7 -0.6 11.2 -0.2 l4.7 0.7 0 6.7 c0 3.7 -0.3 9.7 -0.7 13.5 l-0.6 6.7 -9.3 0 c-9.4 0 -9.4 0 -9.4 -2.5z m12 -13.5 c0 -3.6 -0.3 -4 -2.4 -4 -2.7 0 -3 0.3 -4 4.2 -0.5 2.2 -0.2 2.7 1.6 3.1 4.7 0.9 4.8 0.8 4.8 -3.3z"/>
  <path d="M340 384.5 c0 -3.3 0.2 -3.5 3.5 -3.5 3.3 0 3.5 0.2 3.5 3.5 0 3.3 -0.2 3.5 -3.5 3.5 -3.3 0 -3.5 -0.2 -3.5 -3.5z"/>
  <path d="M185 344.5 l0 -4.5 4 0 4 0 0 4.5 0 4.5 -4 0 -4 0 0 -4.5z"/>
  <path d="M99.4 307.6 c-0.3 -0.8 -0.4 -2.9 -0.2 -4.8 0.3 -3.1 0.5 -3.3 4.6 -3.6 4.2 -0.3 4.2 -0.3 4.2 3.2 0 1.9 -0.3 4.1 -0.6 5 -0.8 2 -7.2 2.2 -8 0.2z"/>
  <path d="M393 277 c0 -3.3 -0.3 -4 -2 -4 -1.8 0 -2 -0.7 -2 -6 l0 -6 3 0 c2 0 3 -0.5 3 -1.5 0 -1 1.1 -1.5 3.5 -1.5 3.3 0 3.5 0.2 3.5 3.5 0 3.2 -0.2 3.5 -3 3.5 -2.5 0 -3 0.4 -3 2.5 0 1.8 0.5 2.5 2 2.5 1.8 0 2 0.7 2 5.5 l0 5.5 -3.5 0 c-3.4 0 -3.5 -0.1 -3.5 -4z"/>
  <path d="M386.7 245.8 c-2.4 -14 -2.4 -13.8 1.8 -13.8 3.2 0 3.5 0.3 3.5 2.9 0 1.6 0.4 3.1 0.9 3.3 0.5 0.2 1.2 4.2 1.6 9.1 l0.7 8.7 -3.4 0 -3.4 0 -1.7 -10.2z"/>
  <path d="M113.6 247.8 c-1 -1.4 -1.6 -4.4 -1.6 -8.1 0 -4.8 0.4 -6.2 2.5 -8.2 3.7 -3.8 14 -3.2 16.7 0.9 0.4 0.6 0.8 4.1 0.8 7.8 0 8.8 -1 9.8 -10 9.8 -6 0 -7.1 -0.3 -8.4 -2.2z"/>
  <path d="M375.7 220.4 c-0.4 -0.4 -0.7 -2.5 -0.7 -4.6 l0 -3.9 4.3 0.3 c4.2 0.3 4.2 0.3 4.2 4.3 0 3.9 -0.1 4 -3.5 4.3 -2 0.2 -3.9 0 -4.3 -0.4z"/>
  <path d="M269 159.5 l0 -4.6 4.3 0.3 c4.2 0.3 4.2 0.3 4.2 4.3 0 4 0 4 -4.2 4.3 l-4.3 0.3 0 -4.6z"/>
  <path d="M325 122 c0 -3.9 0.1 -4 3.5 -4 3.4 0 3.5 0.1 3.5 4 0 3.9 -0.1 4 -3.5 4 -3.4 0 -3.5 -0.1 -3.5 -4z"/>
 </g>
 <g fill="#ffffff">
  <path d="M0 250 l0 -250 250 0 250 0 0 250 0 250 -250 0 -250 0 0 -250z m264 147.4 c9.9 -4.3 24.5 -12.4 31.2 -17.4 2.6 -1.9 6.8 -5.1 9.5 -7 2.6 -1.9 7.7 -6.4 11.2 -10 3.5 -3.6 5.9 -5.8 5.5 -4.8 -1.5 2.8 -11.7 13 -19.2 19.2 -4 3.2 -6.9 6.2 -6.6 6.8 0.3 0.5 -0.2 0.8 -1.2 0.6 -1.1 -0.2 -1.9 0.3 -1.9 1.1 0 0.8 -0.6 1.6 -1.4 1.9 -0.9 0.3 -1.1 0 -0.6 -0.8 0.6 -0.9 0.3 -0.9 -1.3 -0.1 -1.2 0.6 -2.4 1.7 -2.8 2.4 -0.5 0.9 -0.4 0.9 0.7 0 2.2 -2.2 3.3 -1.4 1.3 0.9 l-1.9 2.2 3 -1.9 c1.7 -1 3.9 -2.7 5 -3.7 1.1 -1 2.9 -2.5 4 -3.3 l2 -1.5 -2 0.6 c-2 0.6 -2 0.5 -0.1 -1 1.2 -0.9 2.8 -1.3 3.9 -1 1.2 0.4 1.7 0.2 1.3 -0.4 -0.3 -0.6 -0.2 -1.3 0.4 -1.7 0.5 -0.3 1 -0.1 1 0.5 0 0.6 0.4 0.9 1 0.5 0.5 -0.3 0.8 -1.1 0.6 -1.8 -0.1 -0.7 -0.1 -0.9 0.1 -0.5 0.2 0.4 1.1 0.4 1.9 0.1 0.7 -0.3 1.2 -0.9 0.9 -1.3 -0.3 -0.5 1.4 -2.3 3.7 -4 l4.3 -3.2 -3.9 3.6 c-2.2 2 -3.3 3.6 -2.6 3.6 0.7 0 -0.9 1.7 -3.6 3.7 -6.6 5 -6.5 4.9 -10 7.8 -1.8 1.4 -3.7 2.5 -4.3 2.5 -0.6 0 -0.8 0.7 -0.4 1.7 0.4 1.1 0.3 1.4 -0.5 0.9 -0.6 -0.4 -3.1 0.5 -5.4 2 -5.2 3.3 -5.3 3.3 -4.6 3.9 0.6 0.7 7.9 -3.4 9 -5 0.4 -0.5 0.8 -0.6 0.8 -0.2 0 0.5 1.7 -0.5 3.7 -2.2 2 -1.6 4 -2.8 4.4 -2.6 0.4 0.3 1.2 -0.2 1.9 -1 0.7 -0.8 1.6 -1.2 2.1 -0.9 0.5 0.3 0.8 0 0.7 -0.8 -0.2 -0.7 0.3 -1.2 1 -1 0.6 0.1 1.1 -0.4 1 -1 -0.2 -0.7 0.3 -1.2 1 -1 0.8 0.1 1.1 -0.2 0.8 -0.7 -0.4 -0.5 -0.2 -1.2 0.4 -1.6 0.5 -0.3 1 -0.1 1 0.5 0 0.7 0.6 1 1.3 0.7 0.6 -0.2 1.1 -1.1 0.9 -2.1 -0.2 -0.9 0.2 -1.6 0.8 -1.6 0.6 0 0.8 0.5 0.5 1 -1.2 2 1.1 1 4.5 -2 1.9 -1.6 4 -2.9 4.5 -2.9 1.2 0 -4.3 4.8 -10.5 9.1 -2.5 1.8 -4.9 3.6 -5.5 4 -0.5 0.5 -1.9 1.6 -3 2.4 -1.1 0.9 -0.2 0.6 2 -0.6 4.6 -2.4 18.5 -13.7 18.4 -14.8 -0.3 -1.8 0.2 -2.6 0.9 -1.4 0.6 0.9 3.7 -1.9 10.3 -9.5 10.2 -11.6 20 -25.6 25.4 -36.3 5.6 -11.1 11.4 -30.4 11.6 -38.8 0.1 -2 0.5 -4.8 1 -6.2 0.6 -1.6 0.7 0.8 0.4 7 -1.2 27.3 -19.2 60.3 -48.5 88.8 -3.6 3.5 -8.9 7.9 -11.8 9.9 -2.9 2 -5 3.8 -4.8 4 0.2 0.3 1.7 -0.4 3.3 -1.5 1.5 -1 4.8 -3.2 7.3 -4.8 4.8 -3.2 21.6 -18.5 21.3 -19.5 -0.1 -0.4 1 -1.7 2.5 -3 1.4 -1.3 2.1 -1.7 1.4 -0.8 -0.6 0.9 -0.8 1.9 -0.4 2.3 0.4 0.4 0.1 0.6 -0.7 0.4 -0.7 -0.2 -1.5 0.5 -1.6 1.6 -0.2 1 -1.2 2.8 -2.2 4 -1 1.2 0.4 -0.1 3.1 -2.8 13.4 -14 25.1 -31.7 32.9 -49.8 3.2 -7.4 6.8 -23.5 7.4 -33.3 0.4 -6.2 0.9 -9.2 1.4 -8 0.5 1.4 0.8 0.3 0.8 -3.3 0.1 -3.7 -0.3 -5.4 -1.3 -5.8 -0.8 -0.3 -1.2 -1.2 -0.9 -2 0.3 -0.8 0 -1.4 -0.6 -1.4 -0.6 0 -0.8 -0.7 -0.5 -1.5 0.4 -0.8 0.2 -2.1 -0.4 -2.8 -0.5 -0.6 -0.9 -1.9 -0.9 -2.7 0 -0.8 -1.3 -3.5 -2.9 -5.9 -1.6 -2.4 -3.5 -5.4 -4.2 -6.8 -2.2 -3.8 -12.3 -11.6 -19.2 -14.6 -3.6 -1.6 -7.7 -3.5 -9.2 -4.3 -1.6 -0.7 -2.8 -1 -2.8 -0.5 0 0.4 -2.3 0.3 -5.1 -0.3 -6.6 -1.4 -27 1.2 -43.3 5.4 -6.6 1.7 -12.4 2.9 -13 2.7 -0.6 -0.3 -1.9 0.2 -2.9 1.1 -2.5 2.2 -3.1 0.8 -1.1 -2.5 2.2 -3.4 10.6 -14.8 13.4 -18.3 1.2 -1.4 4.3 -5.6 7 -9.5 6.9 -9.9 10.9 -14.4 11 -12.2 0 0.9 -0.3 1.7 -0.8 1.7 -0.4 0 -1.4 1.5 -2.1 3.3 -0.8 1.7 -3.2 5.7 -5.4 8.7 -2.2 3 -3.3 4.8 -2.4 4 1.7 -1.7 11.2 -13.5 14 -17.5 1 -1.4 2.5 -2.5 3.4 -2.5 1.3 0 1.3 0.3 0.2 1.8 -0.7 0.9 -0.2 0.7 1.2 -0.5 2.3 -2.1 8.9 -3.3 8.9 -1.7 0 0.9 -4.1 6.5 -6.8 9.4 -2.8 3 -4.2 6.2 -4.2 9.7 l0 2.6 2.3 -2 c1.2 -1.1 4 -2.7 6.2 -3.4 2.2 -0.7 4.4 -1.7 5 -2.1 0.5 -0.4 1.5 -0.8 2.3 -0.8 1.9 0 37.3 -14 39.2 -15.5 0.8 -0.7 2.3 -1.5 3.3 -1.8 2.6 -0.9 2.1 -6.1 -0.9 -10.7 -1.5 -2.2 -3 -4 -3.5 -4 -0.4 0 -2 -1.1 -3.6 -2.4 -1.5 -1.3 -4.6 -2.9 -6.8 -3.7 -2.2 -0.8 -4.2 -1.7 -4.5 -2.1 -0.7 -0.9 -14.1 -1.2 -16.2 -0.3 -2.5 1 -2.3 -0.6 0.7 -6.5 1.4 -2.7 2.5 -5.5 2.5 -6.2 0 -0.7 -1.2 1 -2.6 3.8 -1.4 2.9 -3.7 6.3 -5.1 7.5 l-2.6 2.4 2.5 -4.5 c2.1 -3.9 3.7 -7.7 6.3 -15.5 0.3 -1.1 -0.5 0.1 -2 2.8 -1.4 2.6 -3 4.7 -3.5 4.7 -0.6 0 -0.9 0.3 -0.8 0.8 0.4 1 -8.2 12.2 -9.3 12.2 -0.5 0 1.2 -3.8 3.7 -8.5 5 -9.3 5.4 -11.8 0.6 -3.2 -3.5 6.2 -7.9 11.7 -9.4 11.7 -0.6 0 -0.5 -0.7 0.3 -1.7 0.7 -1 0.2 -0.8 -1.2 0.5 -1.7 1.4 -4.3 2.5 -7.1 2.7 -11.2 1.1 -35.8 5.9 -48 9.4 l-6.8 2 -0.1 -3.2 c-0.1 -3.1 -0.1 -3.1 -0.9 -0.7 -0.7 2 -0.8 1.6 -0.9 -2.2 -0.1 -3.5 0.4 -5 1.7 -5.8 1.3 -0.9 1.3 -1 0.1 -0.7 -1.2 0.4 -1.5 0 -1.1 -1.9 0.2 -1.3 0.9 -2.1 1.5 -1.7 0.6 0.4 0.8 -0.2 0.5 -1.5 -0.4 -1.2 -0.3 -2 0.2 -1.7 0.4 0.3 1.1 -1 1.4 -2.9 0.6 -3.2 3.6 -5.9 3.6 -3.3 0.1 0.7 0.6 0.6 1.3 -0.4 0.8 -1.1 5.2 -2.5 11.7 -3.8 13.4 -2.8 22 -5.5 29.2 -9.4 5.6 -3 5.7 -3.2 5.4 -7 -0.5 -6.2 -6.1 -10.5 -18 -14.1 -4.7 -1.4 -16.3 -1.5 -19.6 -0.2 -1.2 0.5 -1.5 -0.5 -1.7 -4.9 -0.1 -3 -0.9 -6.8 -1.7 -8.3 -2.1 -4 -12.3 -13.2 -14.7 -13.2 -1.1 0 -2.7 -0.4 -3.7 -0.9 -4.3 -2.2 -9.5 -3.1 -17.5 -3.1 -8.2 0 -11.1 1.1 -6.7 2.5 3.4 1.1 11 9.4 13.5 14.8 4.2 8.8 2.7 23.7 -2.6 26.5 -5.4 2.8 -25.1 10.7 -34.8 13.9 -13.7 4.5 -22.2 5.3 -27.8 2.5 -2.2 -1.2 -5 -3.4 -6.2 -4.9 -2.8 -3.9 -2.6 -1.1 0.3 3.6 3.6 5.7 13.6 13.1 17.6 13.1 0.6 0 2.9 0.9 5.1 1.9 6.2 3 18.3 4.9 19.4 3 0.4 -0.5 2 -0.9 3.6 -0.9 1.7 0 3.9 -0.5 5.1 -1.1 1.1 -0.6 2.1 -0.9 2.4 -0.7 0.2 0.3 -3.8 6.8 -8.9 14.5 l-9.2 14.1 -7 2.1 c-7.3 2.1 -23.8 5.3 -36.2 7.1 -6.2 0.8 -8 0.7 -13.7 -1.1 -7.4 -2.2 -9.4 -4.4 -10.4 -11.1 l-0.6 -4.3 -0.6 3.5 c-0.5 3.4 -0.6 3.4 -1.8 1.3 -0.6 -1.2 -1.6 -4.6 -2.1 -7.5 -0.6 -3.8 -0.9 -4.5 -1.1 -2.3 l-0.2 3 -1.3 -3.5 -1.3 -3.5 -0.1 3.8 c-0.3 13.5 5.6 29.3 15.1 40.4 7.2 8.4 10.1 9.7 21.5 9.7 l9.2 0.1 -3.7 4.5 c-2 2.5 -5.8 7.2 -8.5 10.5 l-4.9 6 5.4 -5.9 c10.8 -12 17.1 -18.6 17.9 -18.6 0.5 0 -6.4 9.2 -15.4 20.4 -17.6 22.1 -28.7 36.9 -28.7 38.4 0 0.5 -0.9 1.7 -2 2.7 -1.1 1 -2 2.4 -2 3.1 0 0.7 -0.4 1.4 -0.9 1.6 -1.3 0.4 -10.7 20.6 -11.6 24.8 -0.5 2.2 -1 2.9 -1.5 2 -1.3 -2.1 -2.3 5.3 -1.7 11.7 0.3 3 1.5 7 2.7 9 2.4 4.2 2.3 4.8 -0.6 2.4 -4.1 -3.3 -4.9 -6.1 -4.8 -17.5 0 -6.4 -0.3 -9.9 -0.8 -8.5 -1.4 4.5 -2.5 19.4 -1.6 22.5 1.3 5 5 9.8 9.1 11.7 2 1 3.7 2.3 3.7 2.8 0 1.6 7.4 5.6 12.3 6.6 10.2 2.2 21.6 -0.3 31.7 -7.1 13.1 -8.7 40.3 -35.3 49.6 -48.5 1.6 -2.2 3.2 -4.1 3.7 -4.1 0.4 0 0.7 3.5 0.7 7.8 0.1 4.2 0.5 9.7 0.9 12.1 1.2 6.2 0.5 7.6 -2.6 5.1 -3.1 -2.4 -5.1 -2.6 -3.2 -0.4 1.5 1.8 4.9 11.9 4.9 14.5 0 3.1 5 13.8 8 17 1.6 1.9 3 3.9 3 4.7 0 0.7 1.4 1.8 3 2.3 1.7 0.6 3 1.4 3 1.9 0 0.4 1.1 1 2.4 1.2 3.3 0.7 5.2 -1.5 10.9 -12.7 1.4 -2.8 0.9 -19 -0.8 -24.9 -1.8 -5.9 -1.9 -26.3 -0.4 -46.6 0.6 -7.4 1.1 -14.5 1.1 -15.8 0 -1.3 1 -2.9 2.2 -3.7 2.3 -1.5 24.1 -7.5 27.4 -7.5 2.8 0 3.6 4.6 2.9 15.9 -1.2 16.3 -3.8 26.4 -11.3 43.6 -0.9 2.2 -1.8 4.8 -1.9 5.9 -0.2 1.6 0.1 1.5 1.8 -0.5 1.3 -1.7 1.7 -1.9 1.3 -0.6 -0.6 1.8 0.9 2.4 1.9 0.7 0.4 -0.6 1.2 -0.4 2.1 0.5 1.3 1.3 1.2 2 -1.5 5.9 l-3.1 4.5 4.5 -2.6 c5.3 -2.9 5.7 -2.2 1.3 3.2 l-3.3 3.9 3 -2.2 c1.7 -1.2 4.8 -2.9 7 -3.8 l4 -1.6 -3.4 3.6 c-1.9 2 -3 3.6 -2.3 3.6 0.7 0 1.2 -0.4 1.2 -1 0 -0.5 0.9 -1 2 -1 1.1 0 2 -0.4 2 -0.9 0 -0.5 1.5 -1.6 3.4 -2.5 1.8 -0.8 3.9 -2.2 4.6 -3.1 0.7 -0.8 1.7 -1.5 2.2 -1.5 1.9 0 6.1 -4 8.1 -7.7 2.5 -4.7 5.4 -26.9 5.3 -40 -0.1 -9 -0.2 -9.3 -4.1 -14.9 -2.2 -3.2 -5.9 -7.2 -8.2 -8.9 -2.3 -1.6 -4.2 -3.2 -4.2 -3.5 -0.3 -2.2 20.3 -5.4 31.2 -4.8 6.9 0.3 8.1 0.6 9.8 2.8 4 5.2 5.4 12.6 5.3 28 -0.1 18.6 -2.8 29.8 -12.1 51 -5.3 11.8 -13 24.3 -14.6 23.3 -0.6 -0.3 -0.7 -0.1 -0.3 0.6 0.5 0.7 -0.8 3.1 -3.1 5.9 -5.5 6.7 -19.1 20.2 -20.3 20.2 -0.6 0 -0.8 0.5 -0.5 1 0.4 0.6 0.2 0.9 -0.3 0.8 -1.5 -0.5 -7.3 4.2 -6.7 5.3 0.4 0.5 -0.1 0.9 -0.9 0.9 -0.8 0 -2.6 1.1 -3.9 2.5 -2.2 2.5 -15.1 10.5 -16.8 10.5 -0.4 0 -1.1 0.4 -1.4 1 -0.4 0.6 0.1 0.7 1.2 0.4 1.6 -0.5 1.5 -0.3 -0.2 1.1 -1.1 1 -3.3 2.3 -5 3.1 -6.6 2.9 -0.5 1.2 7.5 -2.2z m106.9 -16.1 l0.1 -5.1 -3.7 -0.6 c-2.1 -0.4 -5.8 -0.3 -8.3 0.2 l-4.5 0.7 -0.2 8 -0.2 8 1.7 -7.5 1.7 -7.5 5.8 -0.3 5.7 -0.3 0.1 10.3 c0.2 9.2 0.3 9.7 0.9 4.8 0.5 -3 0.8 -7.8 0.9 -10.7z m-6.3 11.8 c-1.9 -2.1 -6.6 -1.7 -6.6 0.5 0 1 1.3 1.4 4.2 1.4 3.9 0 4 -0.1 2.4 -1.9z m-2.9 -39.1 c13.9 -18.7 20.2 -31.9 25.1 -52.5 1.9 -8.4 2.9 -19.5 1.5 -18.2 -0.4 0.5 -0.8 1.4 -0.8 2 -1 19.2 -11.3 46.2 -24.8 64.5 -3.3 4.5 -14.9 18.6 -16.7 20.2 -0.3 0.3 -1.1 1.4 -1.9 2.5 -3 4.3 13.7 -13.3 17.6 -18.5z m-171.7 -9.5 c0 -0.8 -0.4 -1.5 -1 -1.5 -0.5 0 -1 0.7 -1 1.5 0 0.8 0.5 1.5 1 1.5 0.6 0 1 -0.7 1 -1.5z m-76 -39.5 c0 -1.3 -0.1 -1.3 -1 0 -0.5 0.8 -1 2.2 -1 3 0 1.3 0.1 1.3 1 0 0.5 -0.8 1 -2.2 1 -3z m289.8 0.8 c1.8 -1.8 1.4 -4.6 -0.7 -5.8 -3.4 -1.8 -6.7 3 -3.9 5.8 0.7 0.7 1.7 1.2 2.3 1.2 0.6 0 1.6 -0.5 2.3 -1.2z m-299.2 -3.6 c-1 -1 -2.9 1.5 -2.1 2.8 0.6 0.9 1 0.8 1.7 -0.4 0.6 -1 0.7 -2 0.4 -2.4z m280.5 -22.5 c-1.3 -1.3 -1.5 1.1 -0.4 4 0.7 1.6 0.8 1.5 1.1 -0.6 0.2 -1.3 -0.1 -2.8 -0.7 -3.4z m-257.7 -34.3 c1.6 -1.6 2.2 -8 0.8 -10 -1 -1.5 -4.7 -3.4 -6.7 -3.4 -2.6 0 -6.5 4.6 -6.5 7.7 0 4.7 2.5 7.3 7 7.3 2.2 0 4.5 -0.7 5.4 -1.6z m252.7 -29.7 c-1.3 -1.3 -2.6 -0.3 -1.6 1.2 0.3 0.6 1.1 0.8 1.7 0.5 0.6 -0.4 0.6 -1 -0.1 -1.7z m-105.9 -56.2 c0 -0.5 -0.5 -1.1 -1.1 -1.3 -0.6 -0.2 -1.1 0.4 -1.1 1.3 0 0.9 0.5 1.5 1.1 1.3 0.6 -0.2 1.1 -0.8 1.1 -1.3z"/>
  <path d="M182.6 330.3 c10.9 -11 19 -20.5 32.4 -37.9 4.4 -5.7 4.5 -5.8 4.8 -3.1 0.2 1.8 -0.5 3.9 -2.1 6 -7.2 9.3 -37.6 40.4 -43.9 44.8 -1.8 1.3 2.1 -3.1 8.8 -9.8z"/>
  <path d="M123.2 330.8 c-2.8 -3.6 -3.1 -11.4 -0.7 -20.2 1.9 -7.2 10 -23.6 15.7 -31.9 8.5 -12.3 27.3 -35.6 42.5 -52.7 1.7 -1.9 4.1 -4.6 5.3 -6 l2.2 -2.5 -1.7 3 c-1 1.7 -4.2 5.9 -7.2 9.5 -21.2 25.7 -41.1 53.2 -44.8 61.8 -1.1 2.3 -2.2 4.2 -2.7 4.2 -0.4 0 -0.7 0.3 -0.7 0.8 0.3 1.8 -0.2 3.3 -1 2.8 -0.4 -0.3 -0.6 0.5 -0.4 1.8 0.3 1.3 -0.1 2.7 -0.7 3.1 -0.9 0.5 -1 0.1 -0.6 -1.6 0.6 -2.2 0.6 -2.2 -0.5 -0.5 -4.3 6.9 -6.6 22.6 -3.9 27.5 1.2 2.3 0.8 2.8 -0.8 0.9z"/>
  <path d="M139.7 327.3 c-1.3 -1.2 -0.7 -15 0.9 -20.4 2.5 -8.6 15.9 -32.2 19.5 -34.5 0.7 -0.4 -0.2 1.3 -1.8 3.7 -4 5.8 -11.9 20.7 -12.7 23.9 -0.4 1.4 1.2 -1.1 3.5 -5.5 2.3 -4.4 4.5 -8.1 5 -8.3 0.5 -0.2 0.9 -0.8 0.9 -1.3 0 -2 7.5 -12 20.4 -27.3 3.8 -4.4 8.7 -10.5 10.9 -13.3 2.2 -2.9 4.4 -5.3 4.9 -5.3 1.1 0 -4.4 7.9 -8.5 12.1 -1.5 1.6 -2.5 2.9 -2.2 2.9 0.5 0 -1.9 3.1 -4.8 6.2 -1 1 -1.5 2.3 -1.2 2.8 0.4 0.6 -0.1 1.3 -1 1.6 -0.9 0.4 -1.4 1.3 -1.1 2 0.3 0.8 0 1.3 -0.6 1.1 -1.3 -0.2 -12.2 16.4 -17.7 27.3 -4.8 9.2 -8.1 19.8 -8.1 25.5 0 4.4 -2.2 7.7 -4 5.9 -0.5 -0.5 -1.1 -3.4 -1.3 -6.4 -0.3 -4.6 -0.4 -4.3 -0.3 1.3 0.1 3.7 0.1 6.7 0 6.7 0 0 -0.4 -0.3 -0.7 -0.7z"/>
  <path d="M128 321 c0 -2.7 0.5 -7.3 1.1 -10.2 1.5 -6.7 7.3 -20.4 8.6 -20.1 0.5 0.1 0.9 -0.8 0.9 -2 -0.1 -1.2 0.4 -2.1 1 -2 0.7 0.1 1.1 -0.5 1 -1.5 0 -0.9 0.4 -1.6 1.1 -1.5 0.7 0.2 1 -0.3 0.7 -1.1 -0.3 -0.8 0.4 -2 1.5 -2.8 1.2 -0.8 1.8 -1.8 1.5 -2.1 -0.7 -0.7 2.8 -5.4 11.8 -16 6 -6.9 7.7 -7.4 3.3 -0.9 -1.4 2 -2.5 3.3 -2.5 2.8 0 -0.5 -1.8 1.8 -4 5 -2.2 3.3 -3.8 6.5 -3.5 7.1 0.2 0.7 -0.1 1.2 -0.7 1 -0.7 -0.1 -1.3 0.7 -1.4 1.8 -0.2 2.2 -11.9 25.7 -12.5 25.1 -0.2 -0.3 -0.5 0.8 -0.6 2.2 -0.1 1.5 -0.9 6.8 -1.6 11.7 l-1.5 9 -0.1 -7.5 c0 -4.1 0.4 -9.5 1 -11.9 1.5 -6.5 0.3 -6.1 -1.6 0.5 -0.9 3.2 -1.6 8.6 -1.6 12.1 0 3.5 -0.4 6.3 -0.9 6.3 -0.6 0 -1 -2.2 -1 -5z"/>
  <path d="M125.3 319 c0 -2.5 0.2 -3.5 0.4 -2.2 0.2 1.2 0.2 3.2 0 4.5 -0.2 1.2 -0.4 0.2 -0.4 -2.3z"/>
  <path d="M147.4 321.5 c-1.3 -3.2 1.9 -14.2 6.9 -24.5 4.6 -9.5 13.8 -24.1 14.7 -23.5 0.5 0.3 2.1 -1.2 3.7 -3.2 1.5 -2.1 3 -4 3.3 -4.3 0.3 -0.3 1.7 -2.1 3 -4 2.1 -3 7 -9.3 17.1 -22 1.1 -1.4 5.1 -7.2 8.9 -13 12.2 -18.4 12.8 -19 18.6 -19 2.2 0 2.5 0.3 2 2.8 -0.3 1.5 -0.8 12.2 -1.1 23.7 -0.3 11.6 -0.8 22.6 -1.1 24.6 -0.4 2.7 -2.4 5.5 -8.7 12.1 -4.5 4.7 -11.6 11.4 -15.7 14.9 -4.1 3.5 -7.7 6.6 -8 6.9 -3.1 3.1 -9 7.9 -7.5 6 1.1 -1.4 2.2 -2.7 2.5 -3 3.3 -3.3 3.3 -4.4 0 -1.3 -2.5 2.3 -9 7.6 -14.5 11.8 -24 18.4 -23.1 17.8 -24.1 15z"/>
  <path d="M245.1 294.1 c-0.1 -14.5 0.2 -26.1 0.6 -25.7 1.1 1 1.3 47.6 0.3 50.1 -0.5 1.1 -0.9 -9.6 -0.9 -24.4z"/>
  <path d="M222.3 308 c0 -2.5 0.2 -3.5 0.4 -2.2 0.2 1.2 0.2 3.2 0 4.5 -0.2 1.2 -0.4 0.2 -0.4 -2.3z"/>
  <path d="M222.3 298 c0 -2.5 0.2 -3.5 0.4 -2.2 0.2 1.2 0.2 3.2 0 4.5 -0.2 1.2 -0.4 0.2 -0.4 -2.3z"/>
  <path d="M201.7 294.6 c-0.2 -0.6 2.8 -4.7 6.8 -9.1 9.8 -11 13.6 -17 5.1 -8.1 -3.6 3.8 -6.6 7 -6.6 7.2 0 0.6 -9.2 8.9 -10.3 9.3 -1.1 0.4 19.5 -23 23.2 -26.3 1.1 -1.1 2.1 -1.4 2.1 -0.8 0 0.6 -0.4 1.3 -0.9 1.6 -0.5 0.4 -0.8 2.2 -0.7 4 0.2 1.9 0 4 -0.5 4.7 -1.9 3.1 -17.9 18.4 -18.2 17.5z"/>
  <path d="M213.2 289.8 c3.5 -4.6 6 -6.9 6.7 -6.2 0.2 0.2 -1.5 2.3 -3.7 4.6 -2.3 2.3 -4.2 4.6 -4.2 5 0 0.4 -0.5 0.8 -1 0.8 -0.6 0 0.4 -1.9 2.2 -4.2z"/>
  <path d="M382.8 272 c-0.7 -2.4 -0.3 -3.8 0.8 -2.8 0.3 0.4 0.4 1.7 0.2 3 l-0.3 2.3 -0.7 -2.5z"/>
  <path d="M251.9 238.3 c-1.1 -2.9 -0.6 -36.4 0.6 -38.2 0.8 -1.4 5.6 -2.7 20.4 -5.6 13.2 -2.6 18.1 -3.1 18.1 -1.6 0 0.5 -1.6 3.3 -3.5 6.2 -2.9 4.4 -3 4.8 -0.8 2.3 4 -4.5 6.3 -7.7 6.3 -8.6 0 -0.4 1.1 -0.8 2.5 -0.8 3 0 3.1 0.4 0.4 4.1 -1.1 1.6 -1.7 2.9 -1.3 2.9 0.4 0 -0.1 0.7 -1.2 1.5 -1 0.8 -1.6 1.5 -1.2 1.5 0.3 0 -0.8 1.5 -2.5 3.3 -1.8 1.8 -5.9 6.8 -9.2 11.2 -3.3 4.3 -6.5 8.3 -7 8.9 -0.6 0.6 -1.5 2.2 -2.1 3.6 -1.5 3.4 -6.3 9 -7.6 9 -0.6 0 -0.3 -1 0.8 -2.2 l1.9 -2.3 -2.5 2 c-1.4 1.1 -2.7 2.3 -3 2.6 -0.4 0.5 -6.7 2.9 -7.7 2.9 -0.2 0 -0.8 -1.2 -1.4 -2.7z"/>
  <path d="M269 235.1 c0 -0.9 6.2 -9.3 9.3 -12.6 1 -1.1 3.2 -3.9 4.8 -6.2 1.7 -2.4 3.2 -4.3 3.5 -4.3 0.6 0 -2.3 4.6 -5.8 9.1 -1.5 2 -2.5 3.9 -2.2 4.2 0.8 0.8 -2.7 5.8 -3.6 5.2 -0.5 -0.3 -1.2 0 -1.6 0.6 -0.4 0.8 -0.3 0.9 0.4 0.5 2.2 -1.3 1.2 1.3 -1 2.8 -2.5 1.8 -3.8 2 -3.8 0.7z"/>
  <path d="M262 194 c1.9 -1.3 3 -1.3 3 0 0 0.6 -1 1 -2.2 1 -1.9 0 -2 -0.2 -0.8 -1z"/>
  <path d="M254 192.1 c1.8 -1.3 19.9 -5.6 20.5 -4.9 0.3 0.3 -3.9 1.5 -9.2 2.8 -5.4 1.3 -10.5 2.5 -11.3 2.7 -1.3 0.4 -1.3 0.4 0 -0.6z"/>
  <path d="M210.4 183.5 c1.4 -3 9.1 -13.9 8.4 -12 -0.6 1.7 -6.2 10.6 -8.1 12.9 -1.8 2.1 -1.8 2 -0.3 -0.9z"/>
  <path d="M248.2 174 c0 -1.9 0.2 -2.7 0.5 -1.7 0.2 0.9 0.2 2.5 0 3.5 -0.3 0.9 -0.5 0.1 -0.5 -1.8z"/>
 </g>
</svg>